<svg width="16.000000" height="12.046118" viewBox="0 0 16 12.0461" fill="none" xmlns="http://www.w3.org/2000/svg" xmlns:xlink="http://www.w3.org/1999/xlink">
	<desc>
			Created with Pixso.
	</desc>
	<defs/>
	<rect id="Union" width="16.000000" height="12.046118" fill="#FFFFFF" fill-opacity="0"/>
	<path id="Union" d="M8.125 0.5L8.125 7.85759L10.7028 5.27972C10.8612 5.12133 11.1101 5.12133 11.2686 5.27972C11.4269 5.43811 11.4269 5.68701 11.2686 5.8454L7.95673 9.15722Q7.89813 9.2158 7.82739 9.24509Q7.75671 9.27438 7.67389 9.27438Q7.591 9.27438 7.52032 9.24509Q7.44958 9.2158 7.39105 9.15722L4.07922 5.8454C3.92084 5.68701 3.92084 5.43811 4.07922 5.27972C4.23761 5.12133 4.48651 5.12133 4.6449 5.27972L7.125 7.75981L7.125 0.5C7.125 0.22 7.34497 0 7.625 0C7.90497 0 8.125 0.22 8.125 0.5ZM2.77496 9.53674L2.77496 10.5914Q2.77496 10.6322 2.78241 10.6715L2.78247 10.6718Q2.81848 10.8609 3.02686 11.0172Q3.16931 11.1241 3.36176 11.1838Q3.36926 11.1862 3.37677 11.1884L3.37683 11.1884Q3.57043 11.2461 3.78125 11.2461L12.2188 11.2461Q12.4296 11.2461 12.6232 11.1884Q12.6255 11.1877 12.6278 11.187Q12.6312 11.186 12.6347 11.1849Q12.6365 11.1844 12.6382 11.1838Q12.8306 11.1241 12.9731 11.0172Q13.1815 10.8609 13.2175 10.6718L13.2175 10.6718Q13.225 10.6323 13.225 10.5914L13.225 9.53674C13.225 9.31274 13.401 9.13674 13.625 9.13674C13.849 9.13674 14.025 9.31274 14.025 9.53674L14.025 10.5914Q14.025 10.7023 14.0052 10.8096Q13.9694 11.005 13.8681 11.1884Q13.8596 11.2038 13.8506 11.219L13.8506 11.2192Q13.7042 11.4689 13.4531 11.6572Q13.2 11.847 12.8755 11.9478Q12.812 11.9676 12.7474 11.9834L12.7473 11.9834Q12.4907 12.0461 12.2188 12.0461L3.78125 12.0461Q3.50928 12.0461 3.25269 11.9834L3.25269 11.9834L3.25262 11.9834Q3.18805 11.9676 3.12439 11.9478Q2.79993 11.847 2.54688 11.6572Q2.29572 11.4688 2.14929 11.2191Q2.14038 11.2039 2.1319 11.1884Q2.03058 11.005 1.99469 10.8096Q1.97498 10.7023 1.97498 10.5914L1.97498 9.53674C1.97498 9.31274 2.151 9.13674 2.375 9.13674C2.599 9.13674 2.77496 9.31274 2.77496 9.53674Z" clip-rule="evenodd" fill="#FFFFFF" fill-opacity="1.000000" fill-rule="evenodd"/>
</svg>
